<svg width="245" height="92" viewBox="0 0 245 92" fill="none" xmlns="http://www.w3.org/2000/svg">
<path id="DJonline logo" d="M62.6428 22.1158L87.7256 21.4827V71.3737C87.2945 81.2018 84.5118 87.202 74.0084 89.9683C64.4652 92.4814 53.1289 91.2443 43.5563 89.3936V77.5784H52.6586C52.4627 81.1726 53.4425 84.9325 57.2637 86.3838C60.3305 87.5527 65.3666 87.2702 68.4138 86.1111C74.2926 83.8805 75.5761 77.7342 75.7427 72.299L53.0995 72.7276L52.6586 64.4968C47.26 70.1464 40.5483 72.8834 32.5728 73.5653C15.2206 75.0458 1.04292 68.0327 0.0533197 50.2659C-0.701124 36.7266 6.56897 27.0348 20.6977 24.5218C30.9953 22.6905 43.5563 23.723 50.8264 31.5349C50.9636 31.681 50.8166 31.9343 51.3359 31.8077V11.8786C51.3359 11.2454 50.8362 9.03432 50.5619 8.40119C49.9838 7.08621 49.0236 6.49204 47.6127 6.14138C44.4479 5.3524 40.6267 5.51799 37.3542 5.44981V1.23216L54.3439 1.02761L62.6526 0.384735V22.1158H62.6428ZM51.9728 45.2398C50.4639 33.0544 41.1558 28.1063 28.8692 29.1388C18.983 29.9667 13.5941 36.7851 12.9377 45.8438C11.8305 61.1266 19.5317 68.7632 35.6885 67.6723C48.8472 66.7859 53.3739 56.5681 51.9728 45.2398ZM62.6428 26.3237V63.1234C62.6428 63.8832 63.7303 65.9774 64.4162 66.5034C66.6208 68.2177 73.1462 67.7502 75.968 67.8671V31.9245C75.968 31.7005 75.5761 30.2005 75.4585 29.8693C74.4591 26.9958 72.0096 26.84 69.1878 26.538C67.091 26.3237 64.7591 26.3627 62.6428 26.3237ZM243.993 50.1685H223.574C223.545 54.0258 224.407 58.896 228.787 60.2987C231.893 61.2922 236.038 60.8052 237.968 58.0389C238.595 57.1428 238.673 56.12 239.232 55.2239H243.562C242.886 60.9708 237.889 63.1234 232.363 63.4546H104.48C86.4127 63.0455 85.7464 37.126 104.48 36.2299C118.658 35.548 123.537 47.412 117.698 58.2824L114.807 61.1169C117.188 60.9708 119.657 61.0584 122.028 60.9123C124.399 60.7662 125.281 60.8149 125.624 58.4188C126.094 55.1654 125.938 47.9574 125.693 44.5483C125.634 43.808 125.438 41.9573 124.919 41.4897C124.007 40.6521 120.97 40.7105 119.687 40.6521V38.1195L130.121 37.9052L130.455 42.1229C133.59 37.0091 144.789 35.6259 148.64 40.243C151.873 44.1197 150.129 53.1199 150.54 58.0584C150.815 61.3409 152.637 61.4091 155.763 61.1072C157.869 60.9026 158.369 60.2208 158.545 58.2727C159.349 49.3309 157.948 39.2884 158.516 30.2297C158.32 27.0445 154.91 28.0186 152.549 27.5705V25.2523L163.866 24.8334V24.8529L163.856 58.7012C163.856 58.8084 164.228 59.987 164.326 60.1526C165.022 61.3507 168.657 61.224 169.97 61.1364C171.969 60.9903 172.899 60.7175 173.154 58.6818C173.497 55.9349 173.595 45.2885 173.086 42.7657C173.037 42.5417 172.664 41.6066 172.537 41.4508C171.89 40.6813 168.275 40.6326 167.197 40.6715V38.139L178.514 37.9247V58.4869C178.514 58.6915 179.004 60.1915 179.17 60.3961C180.101 61.487 185.529 61.263 186.91 60.776C187.969 60.4058 187.978 59.7143 188.067 58.711C188.517 53.5485 187.753 47.7432 188.008 42.5125C187.753 40.2235 184.098 40.8761 182.286 40.6715L182.315 38.4897L182.835 38.139L192.936 37.9247V41.6164L193.377 41.8307C196.219 38.5286 200.373 37.1942 204.821 37.4961C216.873 38.3241 212.454 51.3179 213.355 58.9155C213.443 59.6071 213.737 60.5617 214.58 60.7078L222.898 61.1364C218.088 57.5616 217.098 50.2757 218.627 44.9476C220.439 38.6553 226.406 35.8305 233 36.2493C241.475 36.7948 244.728 42.6781 243.993 50.1685ZM111.623 58.7402C114.984 55.4576 114.925 46.1749 112.71 42.3566C110.114 37.876 101.942 37.6228 98.8757 41.6651C96.0931 45.3275 96.0833 55.068 99.2872 58.4967C102.05 61.4578 108.732 61.565 111.633 58.7402H111.623ZM144.564 43.9346C143.427 40.8858 139.998 40.3306 136.951 40.73C134.031 41.1099 132.179 43.1846 131.346 45.7366C130.513 48.2886 130.543 55.1654 130.788 58.0876C131.023 61 131.748 60.8734 134.462 61.1364C135.442 61.2338 137.294 61.3701 138.234 61.3701C139.439 61.3701 142.8 61.1364 143.858 60.7857C144.995 60.4156 145.142 59.3149 145.23 58.2921C145.504 55.2531 145.553 46.584 144.564 43.9346ZM207.251 43.8372C206.379 41.6553 204.517 40.8176 202.156 40.6618C196.738 40.3111 193.926 43.4281 193.593 48.3568C193.397 51.1523 193.328 55.9642 193.593 58.711C193.71 59.8506 193.926 60.474 195.141 60.8247C197.228 61.4188 204.194 61.4091 206.301 60.8636C206.565 60.7955 207.124 60.6006 207.3 60.4448C207.457 60.2889 207.692 59.7337 207.751 59.5C208.446 56.8992 208.241 46.3308 207.251 43.8372ZM223.79 47.4315H238.438C239.428 35.6552 223.241 36.2591 223.79 47.4315ZM174.604 35.1681C179.19 34.574 178.278 28.0478 172.899 28.9147C168.588 29.6063 169.215 35.8695 174.604 35.1681Z" fill="#414141"/>
</svg>
