<svg width="173" height="92" viewBox="0 0 173 92" fill="none" xmlns="http://www.w3.org/2000/svg">
<g clip-path="url(#clip0_68_437)">
<path d="M70.1362 45.8932H33.3504L25.4529 29.1364C19.2307 15.9341 28.2822 0.401657 42.1945 0.401657H70.1362V45.8932Z" fill="white"/>
<path d="M24.5114 91.3847H0V45.8932H33.3502L41.2477 62.65C47.47 75.8523 38.4184 91.3847 24.5061 91.3847H24.5114Z" fill="white"/>
<path d="M88.6916 2.44971C88.1545 2.03784 87.4684 1.82909 86.6282 1.82909C86.2878 1.82909 85.9528 1.86294 85.6284 1.93629C85.2986 2.00963 85.0061 2.12812 84.7562 2.29738C84.5009 2.46664 84.2988 2.69232 84.1446 2.97442C83.9904 3.25652 83.9159 3.60632 83.9159 4.02947C83.9159 4.42441 84.0276 4.74601 84.2456 4.99426C84.469 5.24251 84.7615 5.43998 85.1285 5.59795C85.4954 5.75593 85.9102 5.8857 86.3782 5.98725C86.8409 6.08881 87.3142 6.20165 87.7982 6.32013C88.2768 6.43861 88.7501 6.57966 89.2181 6.74328C89.6808 6.9069 90.0956 7.12694 90.4679 7.4034C90.8348 7.67985 91.1327 8.02966 91.3507 8.44717C91.5741 8.87032 91.6804 9.39503 91.6804 10.0326C91.6804 10.7153 91.5368 11.302 91.2497 11.7872C90.9625 12.2725 90.5902 12.6674 90.1382 12.9777C89.6861 13.2824 89.1809 13.5081 88.6172 13.6435C88.0588 13.7789 87.5004 13.8522 86.9473 13.8522C86.2665 13.8522 85.623 13.7619 85.0221 13.5814C84.4158 13.4009 83.884 13.13 83.4266 12.7633C82.9693 12.3966 82.6076 11.9283 82.3417 11.3584C82.0758 10.7886 81.9429 10.1116 81.9429 9.33296H83.4692C83.4692 9.8746 83.5702 10.3372 83.767 10.7265C83.9638 11.1158 84.2244 11.4374 84.5488 11.6913C84.8732 11.9452 85.2455 12.1314 85.6762 12.2499C86.107 12.3684 86.5484 12.4304 87.0004 12.4304C87.3621 12.4304 87.729 12.3966 88.096 12.3232C88.4629 12.2499 88.7927 12.1258 89.0905 11.9565C89.383 11.7816 89.6223 11.5446 89.8031 11.2456C89.9839 10.9466 90.0743 10.5629 90.0743 10.0946C90.0743 9.64892 89.9627 9.28783 89.7446 9.01137C89.5213 8.73491 89.2288 8.50923 88.8618 8.33433C88.4949 8.15943 88.08 8.01838 87.612 7.91118C87.1494 7.80398 86.676 7.69114 86.1921 7.5783C85.7081 7.46546 85.2401 7.33005 84.7721 7.18336C84.3095 7.03102 83.8893 6.83355 83.5224 6.59095C83.1554 6.3427 82.8576 6.02675 82.6395 5.63745C82.4162 5.24815 82.3098 4.75729 82.3098 4.17052C82.3098 3.52169 82.4321 2.96313 82.6821 2.48921C82.932 2.01528 83.2618 1.62598 83.6766 1.31567C84.0914 1.011 84.5594 0.779676 85.0859 0.632983C85.6124 0.480649 86.1549 0.407303 86.7079 0.407303C87.3302 0.407303 87.9099 0.486291 88.4417 0.644267C88.9735 0.802244 89.4415 1.04485 89.8403 1.38337C90.2445 1.72189 90.5583 2.14504 90.7923 2.65282C91.0263 3.1606 91.1539 3.76994 91.1752 4.48083H89.6489C89.5585 3.55555 89.2447 2.88415 88.7076 2.47228L88.6916 2.44971Z" fill="white"/>
<path d="M94.1585 4.58803C94.4031 3.77558 94.7647 3.05905 95.254 2.43278C95.738 1.80652 96.3442 1.31002 97.0728 0.937649C97.7961 0.565276 98.6417 0.379089 99.6043 0.379089C100.567 0.379089 101.407 0.565276 102.136 0.937649C102.859 1.31002 103.465 1.80652 103.955 2.43278C104.438 3.05905 104.805 3.77558 105.05 4.58803C105.295 5.40048 105.417 6.24114 105.417 7.12129C105.417 8.00145 105.295 8.84211 105.05 9.65456C104.805 10.467 104.444 11.1835 103.955 11.8098C103.465 12.4361 102.864 12.9269 102.136 13.2937C101.412 13.6604 100.567 13.8409 99.6043 13.8409C98.6417 13.8409 97.7961 13.6604 97.0728 13.2937C96.3495 12.9269 95.7433 12.4304 95.254 11.8098C94.7647 11.1835 94.4031 10.467 94.1585 9.65456C93.9138 8.84211 93.7915 8.00145 93.7915 7.12129C93.7915 6.24114 93.9138 5.40048 94.1585 4.58803ZM95.6422 9.03958C95.8018 9.67148 96.0517 10.2357 96.3868 10.7435C96.7271 11.2456 97.1632 11.6518 97.695 11.9565C98.2269 12.2612 98.8597 12.4135 99.5989 12.4135C100.338 12.4135 100.971 12.2612 101.503 11.9565C102.035 11.6518 102.471 11.2456 102.811 10.7435C103.151 10.2413 103.401 9.67148 103.556 9.03958C103.715 8.40767 103.795 7.77012 103.795 7.12129C103.795 6.47246 103.715 5.83491 103.556 5.20301C103.396 4.5711 103.146 4.0069 102.811 3.49912C102.471 2.99698 102.035 2.59076 101.503 2.28609C100.971 1.98142 100.338 1.82909 99.5989 1.82909C98.8597 1.82909 98.2269 1.98142 97.695 2.28609C97.1632 2.59076 96.7271 2.99698 96.3868 3.49912C96.0464 4.00126 95.7965 4.5711 95.6422 5.20301C95.4827 5.83491 95.4029 6.47246 95.4029 7.12129C95.4029 7.77012 95.4827 8.40767 95.6422 9.03958Z" fill="white"/>
<path d="M109.905 0.689407V13.5476H108.294V0.689407H109.905Z" fill="white"/>
<path d="M116.404 13.5532L112.145 0.689407H113.878L117.34 11.838H117.372L120.872 0.689407H122.552L118.239 13.5476H116.404V13.5532Z" fill="white"/>
<path d="M128.987 0.689407L133.726 13.5476H131.944L130.62 9.67713H125.493L124.137 13.5476H122.488L127.205 0.689407H128.987ZM130.109 8.23842L128.088 2.24096H128.056L126.004 8.23842H130.115H130.109Z" fill="white"/>
<path d="M90.1591 29.8586C89.9091 30.0166 89.5634 30.0956 89.122 30.0956C88.7498 30.0956 88.4519 29.9827 88.2286 29.7627C88.0052 29.5426 87.8989 29.1759 87.8989 28.6738C87.5 29.1759 87.0426 29.5426 86.5161 29.7627C85.9896 29.9827 85.4206 30.0956 84.809 30.0956C84.4101 30.0956 84.0379 30.0448 83.6815 29.9489C83.3252 29.853 83.0168 29.7006 82.7562 29.4975C82.4956 29.2944 82.2882 29.0236 82.134 28.6963C81.9797 28.3635 81.9053 27.9685 81.9053 27.5002C81.9053 26.9699 81.9904 26.5411 82.1606 26.2026C82.3307 25.864 82.5541 25.5932 82.8306 25.3845C83.1072 25.1757 83.4263 25.0177 83.7826 24.9049C84.1389 24.7977 84.5059 24.7074 84.8781 24.6341C85.2717 24.5495 85.6493 24.4874 86.0056 24.4423C86.3619 24.4028 86.6757 24.3407 86.9469 24.2617C87.2181 24.1827 87.4362 24.0699 87.5904 23.9176C87.7499 23.7652 87.8297 23.5508 87.8297 23.2574C87.8297 22.9189 87.7712 22.6537 87.6489 22.445C87.5319 22.2419 87.3777 22.0839 87.1915 21.9767C87.0054 21.8695 86.7927 21.7962 86.564 21.7623C86.33 21.7285 86.1013 21.7059 85.8779 21.7059C85.2664 21.7059 84.7558 21.83 84.3516 22.0726C83.9421 22.3209 83.7241 22.7835 83.6869 23.4662H82.2456C82.2669 22.8907 82.3839 22.4055 82.586 22.0049C82.7881 21.61 83.0593 21.2884 83.3997 21.0401C83.74 20.7919 84.1283 20.617 84.5644 20.5098C85.0004 20.4026 85.4684 20.3462 85.963 20.3462C86.3566 20.3462 86.7501 20.3744 87.1437 20.4364C87.5319 20.4985 87.8882 20.617 88.2073 20.8032C88.5264 20.9893 88.7764 21.2489 88.9731 21.5874C89.1646 21.9203 89.2603 22.3604 89.2603 22.902V27.6808C89.2603 28.0419 89.2816 28.3014 89.3188 28.4707C89.356 28.6399 89.489 28.7245 89.7177 28.7245C89.84 28.7245 89.9889 28.702 90.1591 28.6512V29.8417V29.8586ZM87.8138 25.0854C87.6329 25.2265 87.3936 25.3337 87.1011 25.4014C86.8086 25.4691 86.5002 25.5199 86.1758 25.565C85.8514 25.6045 85.5269 25.6553 85.1972 25.7061C84.8675 25.7625 84.575 25.8471 84.3144 25.9656C84.0538 26.0841 83.8411 26.2533 83.6762 26.479C83.5114 26.6991 83.4316 27.0037 83.4316 27.3817C83.4316 27.63 83.4795 27.8444 83.5752 28.0193C83.6709 28.1942 83.7985 28.3352 83.9475 28.4424C84.1017 28.5496 84.2772 28.6286 84.4846 28.6738C84.6867 28.7189 84.9047 28.7471 85.1281 28.7471C85.6014 28.7471 86.0109 28.6794 86.3513 28.5384C86.6916 28.403 86.9682 28.2281 87.1809 28.0193C87.3936 27.8105 87.5532 27.5849 87.6542 27.3366C87.7553 27.094 87.8084 26.8627 87.8084 26.6483V25.0911L87.8138 25.0854Z" fill="white"/>
<path d="M95.4558 20.5831V21.9316H93.7061V27.7146C93.7061 27.8952 93.7221 28.0362 93.7487 28.1491C93.7753 28.2563 93.8285 28.3409 93.9082 28.403C93.988 28.465 94.0997 28.5045 94.238 28.5214C94.3816 28.5384 94.5624 28.5496 94.7911 28.5496H95.4558V29.8981H94.3496C93.9774 29.8981 93.6583 29.8699 93.3924 29.8191C93.1265 29.7627 92.9137 29.6668 92.7489 29.5201C92.584 29.3734 92.4617 29.1703 92.3819 28.9051C92.3021 28.6399 92.2649 28.2901 92.2649 27.8613V21.9372H90.7705V20.5888H92.2649V17.796H93.7061V20.5888H95.4558V20.5831Z" fill="white"/>
<path d="M98.615 20.5831V21.9541H98.6469C99.301 20.8991 100.248 20.3687 101.481 20.3687C102.024 20.3687 102.519 20.4872 102.96 20.7298C103.401 20.9724 103.715 21.3786 103.896 21.9541C104.188 21.452 104.577 21.0571 105.061 20.7806C105.539 20.5041 106.071 20.3687 106.645 20.3687C107.087 20.3687 107.486 20.4195 107.842 20.5211C108.198 20.6226 108.507 20.7806 108.757 21.0006C109.012 21.215 109.209 21.4971 109.352 21.8357C109.496 22.1798 109.565 22.5917 109.565 23.0713V29.8981H108.124V23.7934C108.124 23.5057 108.103 23.2349 108.055 22.981C108.007 22.7271 107.927 22.5071 107.799 22.3209C107.677 22.1347 107.502 21.988 107.284 21.8808C107.06 21.7736 106.778 21.7172 106.427 21.7172C105.715 21.7172 105.156 21.9316 104.747 22.366C104.337 22.8004 104.135 23.3759 104.135 24.0925V29.8924H102.694V23.7878C102.694 23.4888 102.667 23.2123 102.62 22.9584C102.572 22.7045 102.481 22.4845 102.359 22.2983C102.237 22.1121 102.066 21.9654 101.859 21.8639C101.652 21.7623 101.38 21.7115 101.051 21.7115C100.631 21.7115 100.274 21.8018 99.9711 21.9823C99.6733 22.1629 99.4287 22.3773 99.2425 22.6312C99.0564 22.8851 98.9181 23.1446 98.833 23.4154C98.7479 23.6862 98.7054 23.9119 98.7054 24.0925V29.8924H97.2642V20.5775H98.6203L98.615 20.5831Z" fill="white"/>
<path d="M111.735 23.3308C111.916 22.7384 112.187 22.2193 112.549 21.7792C112.91 21.3392 113.357 20.995 113.889 20.7411C114.421 20.4872 115.032 20.3631 115.724 20.3631C116.415 20.3631 117.037 20.4872 117.564 20.7411C118.09 20.995 118.532 21.3392 118.899 21.7792C119.26 22.2193 119.532 22.7327 119.712 23.3308C119.893 23.9232 119.984 24.5664 119.984 25.2491C119.984 25.9318 119.893 26.5693 119.712 27.1561C119.532 27.7428 119.26 28.2563 118.899 28.6963C118.537 29.1364 118.09 29.4749 117.564 29.7232C117.037 29.9714 116.426 30.0899 115.724 30.0899C115.022 30.0899 114.421 29.9658 113.889 29.7232C113.357 29.4749 112.91 29.1364 112.549 28.6963C112.187 28.2563 111.916 27.7428 111.735 27.1561C111.554 26.5693 111.464 25.9318 111.464 25.2491C111.464 24.5664 111.554 23.9232 111.735 23.3308ZM113.203 26.7555C113.347 27.1956 113.538 27.5623 113.788 27.8557C114.038 28.1491 114.33 28.3748 114.66 28.5327C114.995 28.6907 115.346 28.7697 115.724 28.7697C116.101 28.7697 116.452 28.6907 116.787 28.5327C117.122 28.3748 117.415 28.1491 117.66 27.8557C117.909 27.5623 118.101 27.1956 118.245 26.7555C118.388 26.3154 118.457 25.8133 118.457 25.2491C118.457 24.6849 118.388 24.1827 118.245 23.7427C118.101 23.3026 117.909 22.9359 117.66 22.6368C117.41 22.3378 117.117 22.1065 116.787 21.9541C116.452 21.7962 116.101 21.7172 115.724 21.7172C115.346 21.7172 114.995 21.7962 114.66 21.9541C114.325 22.1121 114.033 22.3378 113.788 22.6368C113.538 22.9359 113.341 23.3082 113.203 23.7427C113.059 24.1827 112.99 24.6849 112.99 25.2491C112.99 25.8133 113.059 26.3154 113.203 26.7555Z" fill="white"/>
<path d="M122.994 27.8162C123.132 28.0532 123.307 28.2393 123.531 28.3748C123.754 28.5102 123.999 28.6117 124.275 28.6738C124.552 28.7358 124.839 28.7641 125.131 28.7641C125.36 28.7641 125.594 28.7471 125.844 28.7076C126.094 28.6738 126.323 28.6061 126.53 28.5102C126.738 28.4142 126.913 28.2732 127.046 28.087C127.184 27.9008 127.248 27.6639 127.248 27.3761C127.248 26.9812 127.105 26.6822 126.823 26.4734C126.541 26.2703 126.184 26.1067 125.759 25.9769C125.334 25.8528 124.871 25.7343 124.376 25.6327C123.876 25.5312 123.419 25.3845 122.994 25.1983C122.568 25.0121 122.217 24.7526 121.93 24.4141C121.648 24.0755 121.504 23.6073 121.504 23.0092C121.504 22.5409 121.606 22.1403 121.802 21.8018C121.999 21.4633 122.254 21.1925 122.568 20.9837C122.882 20.775 123.233 20.617 123.621 20.5154C124.009 20.4139 124.398 20.3631 124.786 20.3631C125.286 20.3631 125.743 20.4082 126.163 20.4985C126.583 20.5888 126.95 20.7468 127.275 20.9668C127.599 21.1868 127.854 21.4915 128.046 21.8695C128.237 22.2475 128.349 22.7215 128.386 23.2857H126.945C126.924 22.9866 126.849 22.7384 126.722 22.5409C126.599 22.3434 126.44 22.1855 126.248 22.0613C126.057 21.9429 125.844 21.8526 125.61 21.8018C125.376 21.7454 125.142 21.7228 124.908 21.7228C124.695 21.7228 124.477 21.7397 124.254 21.7792C124.031 21.8187 123.834 21.8808 123.653 21.9711C123.472 22.0613 123.323 22.1798 123.212 22.3322C123.1 22.4845 123.041 22.6763 123.041 22.9189C123.041 23.1841 123.127 23.4041 123.302 23.579C123.478 23.7539 123.701 23.895 123.972 24.0135C124.243 24.1263 124.552 24.2222 124.887 24.3012C125.227 24.3802 125.568 24.4592 125.908 24.5438C126.27 24.6285 126.626 24.73 126.972 24.8485C127.317 24.967 127.62 25.125 127.886 25.3281C128.152 25.5255 128.365 25.7738 128.53 26.0728C128.695 26.3718 128.774 26.7442 128.774 27.1899C128.774 27.7541 128.663 28.2224 128.445 28.5948C128.221 28.9672 127.934 29.2662 127.578 29.4975C127.222 29.7232 126.817 29.8868 126.371 29.9771C125.924 30.0674 125.477 30.1125 125.036 30.1125C124.546 30.1125 124.084 30.0561 123.642 29.9489C123.201 29.8417 122.813 29.6611 122.472 29.4185C122.132 29.1703 121.861 28.8487 121.659 28.4481C121.457 28.0475 121.34 27.5567 121.318 26.9812H122.76C122.77 27.3197 122.845 27.6018 122.983 27.8388L122.994 27.8162Z" fill="white"/>
<path d="M132.077 20.5831V21.8413H132.109C132.348 21.3279 132.721 20.9499 133.231 20.7129C133.742 20.4759 134.3 20.3631 134.912 20.3631C135.592 20.3631 136.183 20.4929 136.688 20.758C137.193 21.0232 137.608 21.3787 137.943 21.83C138.278 22.2814 138.528 22.8004 138.698 23.3872C138.868 23.974 138.953 24.6002 138.953 25.2604C138.953 25.9205 138.874 26.5467 138.709 27.1335C138.544 27.7203 138.294 28.2337 137.964 28.6738C137.629 29.1139 137.209 29.458 136.709 29.7119C136.204 29.9658 135.619 30.0899 134.954 30.0899C134.741 30.0899 134.497 30.0674 134.231 30.0166C133.965 29.9658 133.699 29.8925 133.444 29.7853C133.183 29.6781 132.939 29.5314 132.705 29.3452C132.471 29.159 132.279 28.9277 132.12 28.6512H132.088V33.4413H130.646V20.5831H132.088H132.077ZM137.262 23.8894C137.156 23.4775 136.991 23.1051 136.768 22.7835C136.544 22.4619 136.262 22.2024 135.917 22.0106C135.571 21.8187 135.167 21.7228 134.704 21.7228C134.215 21.7228 133.805 21.8244 133.465 22.0275C133.125 22.2306 132.848 22.5014 132.635 22.8287C132.423 23.1615 132.263 23.5339 132.167 23.9571C132.072 24.3802 132.024 24.8034 132.024 25.2378C132.024 25.6948 132.077 26.1349 132.178 26.5637C132.279 26.9925 132.439 27.3648 132.662 27.6921C132.885 28.0137 133.167 28.2788 133.518 28.4763C133.869 28.6738 134.295 28.7753 134.789 28.7753C135.284 28.7753 135.704 28.6738 136.039 28.4707C136.374 28.2676 136.64 27.9967 136.847 27.6582C137.05 27.3197 137.198 26.936 137.289 26.5072C137.379 26.0728 137.427 25.6327 137.427 25.1757C137.427 24.7413 137.374 24.3181 137.268 23.9063L137.262 23.8894Z" fill="white"/>
<path d="M142.299 17.0343V21.9541H142.331C142.442 21.6664 142.602 21.4238 142.804 21.2263C143.006 21.0288 143.235 20.8652 143.49 20.7411C143.745 20.617 144.011 20.5211 144.288 20.4646C144.564 20.4026 144.835 20.3744 145.096 20.3744C145.676 20.3744 146.154 20.459 146.537 20.6283C146.92 20.7975 147.234 21.0288 147.473 21.3335C147.712 21.6325 147.877 21.9936 147.973 22.4055C148.069 22.8174 148.117 23.28 148.117 23.7821V29.9037H146.675V23.6016C146.675 23.0261 146.516 22.5691 146.202 22.2306C145.883 21.8921 145.447 21.7285 144.894 21.7285C144.452 21.7285 144.07 21.8018 143.745 21.9429C143.421 22.0895 143.155 22.2927 142.937 22.5578C142.724 22.823 142.559 23.1333 142.453 23.4831C142.346 23.8386 142.293 24.2222 142.293 24.6454V29.9037H140.852V17.0456H142.293L142.299 17.0343Z" fill="white"/>
<path d="M156.711 29.3C156.057 29.8304 155.227 30.0899 154.233 30.0899C153.531 30.0899 152.924 29.9714 152.408 29.7288C151.893 29.4862 151.462 29.1533 151.111 28.7189C150.76 28.2845 150.499 27.7711 150.324 27.1674C150.148 26.5693 150.047 25.9148 150.026 25.2039C150.026 24.493 150.127 23.8499 150.329 23.2574C150.531 22.6707 150.818 22.1573 151.185 21.7285C151.552 21.294 151.988 20.9611 152.494 20.7185C152.999 20.4759 153.547 20.3575 154.147 20.3575C154.929 20.3575 155.578 20.5267 156.094 20.8709C156.61 21.215 157.019 21.6495 157.333 22.1742C157.647 22.7045 157.86 23.28 157.977 23.9006C158.094 24.5269 158.141 25.1193 158.12 25.6835H151.552C151.542 26.0897 151.584 26.479 151.69 26.8458C151.792 27.2125 151.956 27.5341 152.185 27.8162C152.414 28.0983 152.701 28.324 153.052 28.4932C153.403 28.6625 153.818 28.7471 154.291 28.7471C154.903 28.7471 155.403 28.5948 155.796 28.2958C156.184 27.9967 156.445 27.5397 156.567 26.9248H157.992C157.801 27.9685 157.376 28.7584 156.721 29.2831L156.711 29.3ZM156.365 23.3195C156.237 22.9979 156.062 22.7158 155.839 22.4845C155.615 22.2475 155.36 22.067 155.057 21.9259C154.759 21.7905 154.424 21.7172 154.062 21.7172C153.701 21.7172 153.35 21.7849 153.052 21.9259C152.754 22.0613 152.494 22.2532 152.281 22.4958C152.068 22.7384 151.898 23.0148 151.77 23.3308C151.648 23.6467 151.573 23.9909 151.547 24.3464H156.589C156.567 23.9853 156.487 23.6411 156.36 23.3195H156.365Z" fill="white"/>
<path d="M161.125 20.5831V22.5465H161.157C161.508 21.7905 161.938 21.232 162.449 20.8709C162.959 20.5098 163.603 20.3405 164.385 20.3687V21.988C163.805 21.988 163.316 22.0726 162.906 22.2419C162.497 22.4111 162.172 22.6537 161.922 22.981C161.672 23.3026 161.492 23.6975 161.38 24.1602C161.268 24.6228 161.21 25.1532 161.21 25.7569V29.8981H159.769V20.5831H161.125Z" fill="white"/>
<path d="M171.585 29.3C170.931 29.8304 170.102 30.0899 169.107 30.0899C168.405 30.0899 167.799 29.9714 167.283 29.7288C166.767 29.4862 166.336 29.1533 165.985 28.7189C165.634 28.2845 165.374 27.7711 165.198 27.1674C165.023 26.5693 164.922 25.9148 164.9 25.2039C164.9 24.493 165.001 23.8499 165.204 23.2574C165.406 22.6707 165.693 22.1573 166.06 21.7285C166.427 21.294 166.863 20.9611 167.368 20.7185C167.873 20.4759 168.421 20.3575 169.022 20.3575C169.804 20.3575 170.453 20.5267 170.968 20.8709C171.484 21.215 171.894 21.6495 172.208 22.1742C172.521 22.7045 172.734 23.28 172.851 23.9006C172.968 24.5269 173.016 25.1193 172.995 25.6835H166.427C166.416 26.0897 166.459 26.479 166.565 26.8458C166.666 27.2125 166.831 27.5341 167.06 27.8162C167.288 28.0983 167.575 28.324 167.926 28.4932C168.277 28.6625 168.692 28.7471 169.166 28.7471C169.777 28.7471 170.277 28.5948 170.671 28.2958C171.059 27.9967 171.319 27.5397 171.442 26.9248H172.867C172.676 27.9685 172.25 28.7584 171.596 29.2831L171.585 29.3ZM171.24 23.3195C171.112 22.9979 170.937 22.7158 170.713 22.4845C170.49 22.2475 170.235 22.067 169.931 21.9259C169.634 21.7905 169.299 21.7172 168.937 21.7172C168.575 21.7172 168.224 21.7849 167.926 21.9259C167.629 22.0613 167.368 22.2532 167.155 22.4958C166.943 22.7384 166.772 23.0148 166.645 23.3308C166.522 23.6467 166.448 23.9909 166.421 24.3464H171.463C171.442 23.9853 171.362 23.6411 171.234 23.3195H171.24Z" fill="white"/>
<path d="M90.1591 46.2035C89.9091 46.3615 89.5634 46.4405 89.122 46.4405C88.7498 46.4405 88.4519 46.3276 88.2286 46.1076C88.0052 45.8875 87.8989 45.5208 87.8989 45.0187C87.5 45.5208 87.0426 45.8875 86.5161 46.1076C85.9896 46.3276 85.4206 46.4405 84.809 46.4405C84.4101 46.4405 84.0379 46.3897 83.6815 46.2938C83.3252 46.1979 83.0168 46.0455 82.7562 45.8424C82.4956 45.6393 82.2882 45.3685 82.134 45.0412C81.9797 44.7084 81.9053 44.3134 81.9053 43.8451C81.9053 43.3148 81.9904 42.886 82.1606 42.5475C82.3307 42.209 82.5541 41.9381 82.8306 41.7294C83.1072 41.5206 83.4263 41.3627 83.7826 41.2498C84.1389 41.1426 84.5059 41.0523 84.8781 40.979C85.2717 40.8944 85.6493 40.8323 86.0056 40.7872C86.3619 40.7477 86.6757 40.6856 86.9469 40.6066C87.2181 40.5276 87.4362 40.4148 87.5904 40.2625C87.7499 40.1101 87.8297 39.8957 87.8297 39.6023C87.8297 39.2638 87.7712 38.9987 87.6489 38.7899C87.5319 38.5868 87.3777 38.4288 87.1915 38.3216C87.0054 38.2144 86.7927 38.1411 86.564 38.1072C86.33 38.0734 86.1013 38.0508 85.8779 38.0508C85.2664 38.0508 84.7558 38.1749 84.3516 38.4175C83.9421 38.6658 83.7241 39.1284 83.6869 39.8111H82.2456C82.2669 39.2356 82.3839 38.7504 82.586 38.3498C82.7881 37.9549 83.0593 37.6333 83.3997 37.385C83.74 37.1368 84.1283 36.9619 84.5644 36.8547C85.0004 36.7475 85.4684 36.6911 85.963 36.6911C86.3566 36.6911 86.7501 36.7193 87.1437 36.7813C87.5319 36.8434 87.8882 36.9619 88.2073 37.1481C88.5264 37.3343 88.7764 37.5938 88.9731 37.9323C89.1646 38.2652 89.2603 38.7053 89.2603 39.2469V44.0257C89.2603 44.3868 89.2816 44.6463 89.3188 44.8156C89.356 44.9848 89.489 45.0695 89.7177 45.0695C89.84 45.0695 89.9889 45.0469 90.1591 44.9961V46.1866V46.2035ZM87.8138 41.4304C87.6329 41.5714 87.3936 41.6786 87.1011 41.7463C86.8086 41.814 86.5002 41.8648 86.1758 41.9099C85.8514 41.9494 85.5269 42.0002 85.1972 42.051C84.8675 42.1074 84.575 42.192 84.3144 42.3105C84.0538 42.429 83.8411 42.5983 83.6762 42.8239C83.5114 43.044 83.4316 43.3486 83.4316 43.7267C83.4316 43.9749 83.4795 44.1893 83.5752 44.3642C83.6709 44.5391 83.7985 44.6802 83.9475 44.7874C84.1017 44.8946 84.2772 44.9735 84.4846 45.0187C84.6867 45.0638 84.9047 45.092 85.1281 45.092C85.6014 45.092 86.0109 45.0243 86.3513 44.8833C86.6916 44.7479 86.9682 44.573 87.1809 44.3642C87.3936 44.1554 87.5532 43.9298 87.6542 43.6815C87.7553 43.4389 87.8084 43.2076 87.8084 42.9932V41.436L87.8138 41.4304Z" fill="white"/>
<path d="M97.6097 46.243V44.7648H97.5778C97.2747 45.3403 96.8811 45.7634 96.4078 46.0343C95.9345 46.3051 95.3708 46.4405 94.7273 46.4405C94.1476 46.4405 93.6689 46.3615 93.286 46.1979C92.9031 46.0343 92.5894 45.8029 92.35 45.5039C92.1107 45.2049 91.9459 44.8438 91.8501 44.4319C91.7544 44.0201 91.7065 43.5574 91.7065 43.0553V36.9337H93.1478V43.2358C93.1478 43.8113 93.3073 44.2683 93.6211 44.6068C93.9402 44.9453 94.3763 45.109 94.9294 45.109C95.3708 45.109 95.7537 45.0356 96.0781 44.8946C96.4025 44.7479 96.6684 44.5448 96.8864 44.2796C97.0992 44.0144 97.264 43.7041 97.3704 43.3543C97.4768 42.9989 97.5299 42.6152 97.5299 42.192V36.9337H98.9712V46.2486H97.615L97.6097 46.243Z" fill="white"/>
<path d="M105.098 36.928V38.2765H103.348V44.0595C103.348 44.2401 103.364 44.3811 103.391 44.494C103.417 44.6012 103.471 44.6858 103.55 44.7479C103.63 44.8099 103.742 44.8494 103.88 44.8663C104.024 44.8833 104.204 44.8946 104.433 44.8946H105.098V46.243H103.992C103.619 46.243 103.3 46.2148 103.034 46.164C102.769 46.1076 102.556 46.0117 102.391 45.865C102.226 45.7183 102.104 45.5152 102.024 45.25C101.944 44.9848 101.907 44.635 101.907 44.2062V38.2821H100.413V36.9337H101.907V34.1409H103.348V36.9337H105.098V36.928Z" fill="white"/>
<path d="M106.693 39.6757C106.874 39.0833 107.145 38.5642 107.507 38.1242C107.868 37.6841 108.315 37.3399 108.847 37.086C109.379 36.8321 109.99 36.708 110.682 36.708C111.373 36.708 111.995 36.8321 112.522 37.086C113.048 37.3399 113.49 37.6841 113.857 38.1242C114.218 38.5642 114.49 39.0777 114.67 39.6757C114.851 40.2681 114.942 40.9113 114.942 41.594C114.942 42.2767 114.851 42.9142 114.67 43.501C114.49 44.0878 114.218 44.6012 113.857 45.0413C113.495 45.4813 113.048 45.8199 112.522 46.0681C111.995 46.3164 111.384 46.4348 110.682 46.4348C109.98 46.4348 109.379 46.3107 108.847 46.0681C108.315 45.8199 107.868 45.4813 107.507 45.0413C107.145 44.6012 106.874 44.0878 106.693 43.501C106.512 42.9142 106.422 42.2767 106.422 41.594C106.422 40.9113 106.512 40.2681 106.693 39.6757ZM108.161 43.1004C108.305 43.5405 108.496 43.9072 108.746 44.2006C108.996 44.494 109.288 44.7197 109.618 44.8776C109.953 45.0356 110.304 45.1146 110.682 45.1146C111.059 45.1146 111.41 45.0356 111.745 44.8776C112.08 44.7197 112.373 44.494 112.618 44.2006C112.867 43.9072 113.059 43.5405 113.203 43.1004C113.346 42.6603 113.415 42.1582 113.415 41.594C113.415 41.0298 113.346 40.5277 113.203 40.0876C113.059 39.6475 112.867 39.2808 112.618 38.9817C112.368 38.6827 112.075 38.4514 111.745 38.2991C111.41 38.1411 111.059 38.0621 110.682 38.0621C110.304 38.0621 109.953 38.1411 109.618 38.2991C109.283 38.457 108.991 38.6827 108.746 38.9817C108.496 39.2808 108.299 39.6531 108.161 40.0876C108.017 40.5277 107.948 41.0298 107.948 41.594C107.948 42.1582 108.017 42.6603 108.161 43.1004Z" fill="white"/>
<path d="M118.207 36.928V38.299H118.239C118.893 37.244 119.84 36.7136 121.074 36.7136C121.616 36.7136 122.111 36.8321 122.552 37.0747C122.994 37.3173 123.307 37.7236 123.488 38.299C123.781 37.7969 124.169 37.402 124.653 37.1255C125.132 36.849 125.663 36.7136 126.238 36.7136C126.679 36.7136 127.078 36.7644 127.434 36.866C127.791 36.9675 128.099 37.1255 128.349 37.3455C128.604 37.5599 128.801 37.842 128.945 38.1806C129.088 38.5247 129.157 38.9366 129.157 39.4162V46.243H127.716V40.1383C127.716 39.8506 127.695 39.5798 127.647 39.3259C127.599 39.072 127.519 38.852 127.392 38.6658C127.269 38.4796 127.094 38.3329 126.876 38.2257C126.653 38.1185 126.371 38.0621 126.02 38.0621C125.307 38.0621 124.749 38.2765 124.339 38.7109C123.93 39.1453 123.728 39.7208 123.728 40.4374V46.2374H122.286V40.1327C122.286 39.8337 122.26 39.5572 122.212 39.3033C122.164 39.0494 122.074 38.8294 121.951 38.6432C121.829 38.457 121.659 38.3103 121.451 38.2088C121.244 38.1072 120.973 38.0564 120.643 38.0564C120.223 38.0564 119.867 38.1467 119.563 38.3273C119.266 38.5078 119.021 38.7222 118.835 38.9761C118.649 39.23 118.51 39.4895 118.425 39.7603C118.34 40.0311 118.298 40.2568 118.298 40.4374V46.2374H116.856V36.9224H118.213L118.207 36.928Z" fill="white"/>
<path d="M139.309 46.2035C139.06 46.3615 138.714 46.4405 138.272 46.4405C137.9 46.4405 137.602 46.3276 137.379 46.1076C137.156 45.8875 137.049 45.5208 137.049 45.0187C136.65 45.5208 136.193 45.8875 135.667 46.1076C135.14 46.3276 134.571 46.4405 133.959 46.4405C133.561 46.4405 133.188 46.3897 132.832 46.2938C132.476 46.1979 132.167 46.0455 131.907 45.8424C131.646 45.6393 131.439 45.3685 131.284 45.0412C131.13 44.7084 131.056 44.3134 131.056 43.8451C131.056 43.3148 131.141 42.886 131.311 42.5475C131.481 42.209 131.704 41.9381 131.981 41.7294C132.258 41.5206 132.577 41.3627 132.933 41.2498C133.289 41.1426 133.656 41.0523 134.029 40.979C134.422 40.8944 134.8 40.8323 135.156 40.7872C135.512 40.7477 135.826 40.6856 136.097 40.6066C136.369 40.5276 136.587 40.4148 136.741 40.2625C136.9 40.1101 136.98 39.8957 136.98 39.6023C136.98 39.2638 136.922 38.9987 136.799 38.7899C136.682 38.5868 136.528 38.4288 136.342 38.3216C136.156 38.2144 135.943 38.1411 135.714 38.1072C135.48 38.0734 135.252 38.0508 135.028 38.0508C134.417 38.0508 133.906 38.1749 133.502 38.4175C133.093 38.6658 132.874 39.1284 132.837 39.8111H131.396C131.417 39.2356 131.534 38.7504 131.736 38.3498C131.938 37.9549 132.21 37.6333 132.55 37.385C132.89 37.1368 133.279 36.9619 133.715 36.8547C134.151 36.7475 134.619 36.6911 135.113 36.6911C135.507 36.6911 135.901 36.7193 136.294 36.7813C136.682 36.8434 137.039 36.9619 137.358 37.1481C137.677 37.3343 137.927 37.5938 138.124 37.9323C138.315 38.2652 138.411 38.7053 138.411 39.2469V44.0257C138.411 44.3868 138.432 44.6463 138.469 44.8156C138.506 44.9848 138.639 45.0695 138.868 45.0695C138.99 45.0695 139.139 45.0469 139.309 44.9961V46.1866V46.2035ZM136.964 41.4304C136.783 41.5714 136.544 41.6786 136.252 41.7463C135.959 41.814 135.651 41.8648 135.326 41.9099C135.002 41.9494 134.677 42.0002 134.348 42.051C134.018 42.1074 133.725 42.192 133.465 42.3105C133.204 42.429 132.991 42.5983 132.827 42.8239C132.662 43.044 132.582 43.3486 132.582 43.7267C132.582 43.9749 132.63 44.1893 132.726 44.3642C132.821 44.5391 132.949 44.6802 133.098 44.7874C133.252 44.8946 133.428 44.9735 133.635 45.0187C133.837 45.0638 134.055 45.092 134.278 45.092C134.752 45.092 135.161 45.0243 135.502 44.8833C135.842 44.7479 136.119 44.573 136.331 44.3642C136.544 44.1554 136.704 43.9298 136.805 43.6815C136.906 43.4389 136.959 43.2076 136.959 42.9932V41.436L136.964 41.4304Z" fill="white"/>
<path d="M144.607 36.928V38.2765H142.857V44.0595C142.857 44.2401 142.873 44.3811 142.9 44.494C142.926 44.6012 142.979 44.6858 143.059 44.7479C143.139 44.8099 143.251 44.8494 143.389 44.8663C143.532 44.8833 143.713 44.8946 143.942 44.8946H144.607V46.243H143.501C143.128 46.243 142.809 46.2148 142.543 46.164C142.277 46.1076 142.065 46.0117 141.9 45.865C141.735 45.7183 141.613 45.5152 141.533 45.25C141.453 44.9848 141.416 44.635 141.416 44.2062V38.2821H139.921V36.9337H141.416V34.1409H142.857V36.9337H144.607V36.928Z" fill="white"/>
<path d="M146.489 35.2524V33.3792H147.93V35.2524H146.489ZM147.936 36.928V46.243H146.495V36.928H147.936Z" fill="white"/>
<path d="M150.175 39.6757C150.355 39.0833 150.627 38.5642 150.988 38.1242C151.35 37.6841 151.797 37.3399 152.328 37.086C152.86 36.8321 153.472 36.708 154.163 36.708C154.855 36.708 155.477 36.8321 156.003 37.086C156.53 37.3399 156.971 37.6841 157.338 38.1242C157.7 38.5642 157.971 39.0777 158.152 39.6757C158.333 40.2681 158.423 40.9113 158.423 41.594C158.423 42.2767 158.333 42.9142 158.152 43.501C157.971 44.0878 157.7 44.6012 157.338 45.0413C156.976 45.4813 156.53 45.8199 156.003 46.0681C155.477 46.3164 154.865 46.4348 154.163 46.4348C153.461 46.4348 152.86 46.3107 152.328 46.0681C151.797 45.8199 151.35 45.4813 150.988 45.0413C150.627 44.6012 150.355 44.0878 150.175 43.501C149.994 42.9142 149.903 42.2767 149.903 41.594C149.903 40.9113 149.994 40.2681 150.175 39.6757ZM151.642 43.1004C151.786 43.5405 151.977 43.9072 152.227 44.2006C152.477 44.494 152.77 44.7197 153.1 44.8776C153.435 45.0356 153.786 45.1146 154.163 45.1146C154.541 45.1146 154.892 45.0356 155.227 44.8776C155.562 44.7197 155.854 44.494 156.099 44.2006C156.349 43.9072 156.54 43.5405 156.684 43.1004C156.828 42.6603 156.897 42.1582 156.897 41.594C156.897 41.0298 156.828 40.5277 156.684 40.0876C156.54 39.6475 156.349 39.2808 156.099 38.9817C155.849 38.6827 155.557 38.4514 155.227 38.2991C154.892 38.1411 154.541 38.0621 154.163 38.0621C153.786 38.0621 153.435 38.1411 153.1 38.2991C152.764 38.457 152.472 38.6827 152.227 38.9817C151.977 39.2808 151.781 39.6531 151.642 40.0876C151.499 40.5277 151.43 41.0298 151.43 41.594C151.43 42.1582 151.499 42.6603 151.642 43.1004Z" fill="white"/>
<path d="M161.689 36.928V38.4062H161.721C162.321 37.2778 163.273 36.7136 164.571 36.7136C165.151 36.7136 165.629 36.7983 166.012 36.9675C166.395 37.1368 166.709 37.3681 166.948 37.6728C167.188 37.9718 167.352 38.3329 167.448 38.7448C167.544 39.1566 167.592 39.6193 167.592 40.1214V46.243H166.151V39.9409C166.151 39.3654 165.991 38.9084 165.677 38.5699C165.358 38.2313 164.922 38.0677 164.369 38.0677C163.928 38.0677 163.545 38.1411 163.22 38.2821C162.896 38.4288 162.63 38.6319 162.412 38.8971C162.199 39.1623 162.034 39.4726 161.928 39.8224C161.822 40.1778 161.768 40.5615 161.768 40.9846V46.243H160.327V36.928H161.683H161.689Z" fill="white"/>
</g>
<defs>
<clipPath id="clip0_68_437">
<rect width="173" height="91" fill="white" transform="translate(0 0.384735)"/>
</clipPath>
</defs>
</svg>
